# Blender 4.0.2
# www.blender.org
mtllib B_Pillar.mtl
o B_Pillar
v -0.760657 0.291218 0.896982
v -0.741170 0.248289 1.054229
v -0.723186 0.247395 1.052850
v -0.703804 0.186460 1.208417
v -0.741274 0.230283 1.052549
v -0.723290 0.229389 1.051170
v 0.248610 -0.775628 0.896982
v 0.206827 -0.753793 1.054229
v 0.206931 -0.735787 1.052850
v 0.147164 -0.713057 1.208417
v 0.188843 -0.752898 1.052549
v 0.188947 -0.734892 1.051170
v -0.763492 0.304076 0.901436
v -0.756131 0.303585 0.901518
v -0.760881 0.302031 0.896720
v -0.745553 0.292390 0.901517
v -0.745597 0.285148 0.901425
v -0.749873 0.290395 0.896720
v -0.773997 0.294122 0.901952
v -0.771441 0.292041 0.897243
v -0.773949 0.286704 0.902399
v -0.756101 0.275195 0.901941
v -0.763377 0.275515 0.902398
v -0.760433 0.280405 0.897243
v -0.708041 0.202710 1.207245
v -0.703847 0.197626 1.210781
v -0.701050 0.202591 1.206356
v -0.690176 0.183836 1.201138
v -0.689925 0.190843 1.202552
v -0.692658 0.185797 1.206952
v -0.719138 0.192227 1.206351
v -0.719403 0.185243 1.204873
v -0.714951 0.187122 1.209882
v -0.701272 0.173354 1.200244
v -0.703761 0.175294 1.206053
v -0.708279 0.173498 1.201070
v 0.261291 -0.779172 0.901436
v 0.259394 -0.776451 0.896720
v 0.261209 -0.771795 0.901518
v 0.250617 -0.760613 0.901517
v 0.248386 -0.764816 0.896720
v 0.243384 -0.760256 0.901425
v 0.250770 -0.789109 0.901952
v 0.243366 -0.788650 0.902399
v 0.248834 -0.786441 0.897243
v 0.232864 -0.770192 0.901941
v 0.237826 -0.774805 0.897243
v 0.232780 -0.777475 0.902398
v 0.163154 -0.718188 1.207245
v 0.163423 -0.711201 1.206356
v 0.158310 -0.713719 1.210781
v 0.145299 -0.699304 1.201138
v 0.147120 -0.701891 1.206952
v 0.152310 -0.699442 1.202552
v 0.152073 -0.728687 1.206351
v 0.147207 -0.724223 1.209882
v 0.145085 -0.728564 1.204873
v 0.134219 -0.709803 1.200244
v 0.133974 -0.716807 1.201070
v 0.136017 -0.712395 1.206053
v -0.768745 0.299098 0.901694
v -0.766161 0.297036 0.896982
v -0.750838 0.297983 0.901517
v -0.755377 0.296213 0.896720
v -0.750850 0.280171 0.901683
v -0.755153 0.285400 0.896982
v -0.765937 0.286223 0.897243
v -0.768659 0.281105 0.902398
v -0.709399 0.192374 1.210332
v -0.713590 0.197468 1.206798
v -0.695724 0.178595 1.200691
v -0.698209 0.180545 1.206503
v -0.698252 0.191711 1.208867
v -0.695486 0.196716 1.204453
v -0.713840 0.179369 1.202971
v -0.709356 0.181208 1.207968
v -0.735770 0.253398 1.054319
v -0.728620 0.253138 1.053780
v -0.717758 0.241656 1.051922
v -0.717890 0.234497 1.051260
v -0.746706 0.236025 1.053478
v -0.746570 0.243181 1.054139
v -0.728690 0.224281 1.051080
v -0.735848 0.224547 1.051620
v 0.254114 -0.781446 0.896982
v 0.256030 -0.784141 0.901694
v 0.253890 -0.770633 0.896720
v 0.255909 -0.766199 0.901517
v 0.243106 -0.769810 0.896982
v 0.238123 -0.765224 0.901683
v 0.238069 -0.783058 0.902398
v 0.243330 -0.780623 0.897243
v 0.157613 -0.723438 1.206798
v 0.152759 -0.718971 1.210332
v 0.141569 -0.707143 1.206503
v 0.139759 -0.704554 1.200691
v 0.157865 -0.705320 1.204453
v 0.152715 -0.707805 1.208867
v 0.141612 -0.718309 1.207968
v 0.139528 -0.722684 1.202971
v 0.212364 -0.741531 1.053780
v 0.212228 -0.748684 1.054319
v 0.194347 -0.729784 1.051260
v 0.201502 -0.730049 1.051922
v 0.201427 -0.758901 1.054139
v 0.194275 -0.758640 1.053478
v 0.183417 -0.747162 1.051620
v 0.183547 -0.740000 1.051080
vn -0.7272 -0.6795 -0.0973
vn -0.7308 -0.6759 -0.0955
vn -0.7302 -0.6765 -0.0955
vn -0.7272 -0.6795 -0.0971
vn 0.7273 0.6799 0.0943
vn 0.7273 0.6799 0.0941
vn 0.7302 0.6769 0.0926
vn 0.7307 0.6763 0.0926
vn 0.6412 -0.6830 -0.3498
vn 0.6467 -0.6781 -0.3492
vn 0.6470 -0.6777 -0.3495
vn 0.6411 -0.6829 -0.3502
vn -0.7272 -0.6795 -0.0976
vn -0.7313 -0.6753 -0.0955
vn -0.0261 -0.0247 -0.9994
vn 0.6528 -0.6725 -0.3488
vn 0.6527 -0.6724 -0.3491
vn 0.6472 -0.6773 -0.3498
vn 0.6529 -0.6726 -0.3485
vn 0.7273 0.6798 0.0946
vn 0.7313 0.6758 0.0926
vn -0.6482 0.6797 0.3432
vn -0.6484 0.6794 0.3435
vn -0.6542 0.6742 0.3428
vn -0.6542 0.6743 0.3425
vn 0.1155 -0.2053 0.9719
vn 0.7342 0.6729 0.0905
vn 0.7342 0.6728 0.0908
vn -0.7344 -0.6723 -0.0936
vn -0.7343 -0.6723 -0.0934
vn -0.7344 -0.6722 -0.0939
vn 0.7342 0.6728 0.0910
vn 0.6479 -0.6797 0.3439
vn 0.6428 -0.6849 0.3432
vn 0.6424 -0.6851 0.3435
vn 0.6478 -0.6796 0.3442
vn -0.6486 0.6790 0.3438
vn -0.6541 0.6741 0.3432
vn 0.6410 -0.6828 -0.3505
vn -0.6427 0.6845 0.3442
vn -0.6426 0.6844 0.3445
vn -0.7188 -0.6884 -0.0973
vn -0.7188 -0.6884 -0.0971
vn -0.7159 -0.6916 -0.0955
vn -0.7154 -0.6922 -0.0955
vn -0.7187 -0.6884 -0.0976
vn -0.7148 -0.6928 -0.0955
vn -0.6464 0.6780 -0.3498
vn -0.6464 0.6779 -0.3502
vn -0.6408 0.6835 -0.3495
vn -0.6412 0.6833 -0.3492
vn 0.7191 0.6885 0.0943
vn 0.7158 0.6921 0.0926
vn 0.7163 0.6916 0.0926
vn 0.7191 0.6885 0.0941
vn -0.6352 0.6891 -0.3488
vn -0.6353 0.6891 -0.3484
vn -0.6404 0.6837 -0.3498
vn -0.6352 0.6890 -0.3491
vn -0.1986 0.1267 0.9719
vn 0.6370 -0.6906 0.3425
vn 0.6369 -0.6905 0.3428
vn 0.7191 0.6885 0.0946
vn 0.7153 0.6927 0.0926
vn 0.7125 0.6958 0.0908
vn 0.7125 0.6958 0.0905
vn 0.7124 0.6958 0.0910
vn -0.7119 -0.6960 -0.0936
vn -0.7119 -0.6960 -0.0939
vn -0.7120 -0.6960 -0.0934
vn -0.6463 0.6778 -0.3505
vn 0.6368 -0.6904 0.3432
vn 0.6420 -0.6853 0.3438
vn 0.6477 -0.6795 0.3445
vn -0.1986 0.1268 0.9719
vn -0.6427 0.6846 0.3438
vn 0.7272 0.6798 0.0947
vn -0.7272 -0.6795 -0.0977
vn 0.1156 -0.2053 0.9719
vn 0.6527 -0.6723 -0.3492
vn 0.1155 -0.2053 0.9718
vn 0.6479 -0.6797 0.3438
vn -0.0262 -0.0247 -0.9994
vn 0.7191 0.6884 0.0947
vn -0.6465 0.6780 -0.3498
vn -0.6462 0.6779 -0.3505
vn -0.7188 -0.6884 -0.0977
vn -0.6354 0.6891 -0.3485
vn -0.1986 0.1268 0.9718
vn -0.6426 0.6845 0.3442
vn 0.7272 0.6799 0.0944
vn -0.7272 -0.6795 -0.0974
vn -0.6485 0.6794 0.3432
vn 0.7307 0.6764 0.0922
vn 0.7308 0.6763 0.0929
vn 0.6470 -0.6778 -0.3491
vn -0.7308 -0.6759 -0.0952
vn -0.6483 0.6793 0.3439
vn 0.6468 -0.6777 -0.3498
vn -0.7308 -0.6759 -0.0958
vn 0.7191 0.6884 0.0944
vn -0.6463 0.6779 -0.3502
vn -0.7188 -0.6884 -0.0974
vn 0.6369 -0.6905 0.3429
vn -0.6353 0.6891 -0.3488
vn 0.7124 0.6958 0.0907
vn -0.1986 0.1267 0.9718
vn 0.7158 0.6921 0.0923
vn 0.6425 -0.6852 0.3432
vn -0.6409 0.6836 -0.3491
vn 0.7158 0.6921 0.0928
vn 0.6423 -0.6850 0.3439
vn -0.7154 -0.6922 -0.0953
vn -0.7153 -0.6922 -0.0958
vn -0.6407 0.6834 -0.3499
vt 0.000000 0.000000
s 1
usemtl Chrome
f 68/1/1 5/1/2 81/1/3 21/1/4
f 63/1/5 14/1/6 78/1/7 3/1/8
f 17/1/9 80/1/10 6/1/11 65/1/12
f 23/1/13 84/1/14 5/1/2 68/1/1
f 62/1/15 15/1/15 64/1/15 1/1/15
f 20/1/15 62/1/15 1/1/15 67/1/15
f 6/1/11 71/1/16 34/1/17 83/1/18
f 80/1/10 28/1/19 71/1/16 6/1/11
f 1/1/15 64/1/15 18/1/15 66/1/15
f 16/1/20 63/1/5 3/1/8 79/1/21
f 77/1/22 2/1/23 70/1/24 25/1/25
f 69/1/26 33/1/26 76/1/26 4/1/26
f 3/1/8 78/1/7 27/1/27 74/1/28
f 5/1/2 75/1/29 32/1/30 81/1/3
f 84/1/14 36/1/31 75/1/29 5/1/2
f 79/1/21 3/1/8 74/1/28 29/1/32
f 26/1/26 69/1/26 4/1/26 73/1/26
f 37/1/33 102/1/34 8/1/35 86/1/36
f 2/1/23 82/1/37 31/1/38 70/1/24
f 65/1/12 6/1/11 83/1/18 22/1/39
f 61/1/40 19/1/41 82/1/37 2/1/23
f 73/1/26 4/1/26 72/1/26 30/1/26
f 4/1/26 76/1/26 35/1/26 72/1/26
f 67/1/15 1/1/15 66/1/15 24/1/15
f 91/1/42 44/1/43 106/1/44 11/1/45
f 48/1/46 91/1/42 11/1/45 107/1/47
f 42/1/48 90/1/49 12/1/50 103/1/51
f 88/1/52 9/1/53 101/1/54 39/1/55
f 85/1/15 7/1/15 87/1/15 38/1/15
f 103/1/51 12/1/50 96/1/56 52/1/57
f 12/1/50 108/1/58 58/1/59 96/1/56
f 45/1/15 92/1/15 7/1/15 85/1/15
f 7/1/15 89/1/15 41/1/15 87/1/15
f 94/1/60 10/1/60 99/1/60 56/1/60
f 102/1/34 49/1/61 93/1/62 8/1/35
f 40/1/63 104/1/64 9/1/53 88/1/52
f 9/1/53 97/1/65 50/1/66 101/1/54
f 104/1/64 54/1/67 97/1/65 9/1/53
f 107/1/47 11/1/45 100/1/68 59/1/69
f 11/1/45 106/1/44 57/1/70 100/1/68
f 51/1/60 98/1/60 10/1/60 94/1/60
f 90/1/49 46/1/71 108/1/58 12/1/50
f 8/1/35 93/1/62 55/1/72 105/1/73
f 86/1/36 8/1/35 105/1/73 43/1/74
f 92/1/15 47/1/15 89/1/15 7/1/15
f 10/1/60 95/1/60 60/1/60 99/1/60
f 98/1/60 53/1/75 95/1/60 10/1/60
f 13/1/76 14/1/6 15/1/15
f 16/1/77 17/1/9 18/1/15
f 19/1/41 20/1/15 21/1/4
f 22/1/39 23/1/78 24/1/15
f 25/1/25 26/1/26 27/1/27
f 28/1/19 29/1/32 30/1/79
f 31/1/38 32/1/30 33/1/26
f 34/1/80 35/1/81 36/1/31
f 37/1/82 38/1/83 39/1/55
f 40/1/84 41/1/15 42/1/85
f 43/1/74 44/1/43 45/1/15
f 46/1/86 47/1/15 48/1/87
f 49/1/61 50/1/66 51/1/60
f 52/1/88 53/1/75 54/1/67
f 55/1/72 56/1/60 57/1/70
f 58/1/59 59/1/69 60/1/89
f 19/1/41 61/1/90 62/1/15 20/1/15
f 61/1/90 13/1/76 15/1/15 62/1/15
f 14/1/6 63/1/91 64/1/15 15/1/15
f 63/1/91 16/1/77 18/1/15 64/1/15
f 17/1/9 65/1/12 66/1/15 18/1/15
f 65/1/12 22/1/39 24/1/15 66/1/15
f 20/1/15 67/1/15 68/1/92 21/1/4
f 67/1/15 24/1/15 23/1/78 68/1/92
f 33/1/26 69/1/26 70/1/24 31/1/38
f 69/1/26 26/1/26 25/1/25 70/1/24
f 34/1/80 71/1/16 72/1/26 35/1/81
f 71/1/16 28/1/19 30/1/79 72/1/26
f 26/1/26 73/1/26 74/1/28 27/1/27
f 73/1/26 30/1/79 29/1/32 74/1/28
f 32/1/30 75/1/29 76/1/81 33/1/26
f 75/1/29 36/1/31 35/1/81 76/1/81
f 13/1/76 77/1/93 78/1/94 14/1/6
f 77/1/93 25/1/25 27/1/27 78/1/94
f 16/1/77 79/1/95 80/1/96 17/1/9
f 79/1/95 29/1/32 28/1/19 80/1/96
f 21/1/4 81/1/97 82/1/98 19/1/41
f 81/1/97 32/1/30 31/1/38 82/1/98
f 22/1/39 83/1/99 84/1/100 23/1/78
f 83/1/99 34/1/80 36/1/31 84/1/100
f 45/1/15 85/1/15 86/1/36 43/1/74
f 85/1/15 38/1/83 37/1/82 86/1/36
f 38/1/83 87/1/15 88/1/101 39/1/55
f 87/1/15 41/1/15 40/1/84 88/1/101
f 41/1/15 89/1/15 90/1/102 42/1/85
f 89/1/15 47/1/15 46/1/86 90/1/102
f 44/1/43 91/1/103 92/1/15 45/1/15
f 91/1/103 48/1/87 47/1/15 92/1/15
f 55/1/72 93/1/104 94/1/60 56/1/60
f 93/1/104 49/1/61 51/1/60 94/1/60
f 60/1/89 95/1/60 96/1/105 58/1/59
f 95/1/60 53/1/75 52/1/88 96/1/105
f 50/1/66 97/1/106 98/1/60 51/1/60
f 97/1/106 54/1/67 53/1/75 98/1/60
f 56/1/60 99/1/107 100/1/68 57/1/70
f 99/1/107 60/1/89 59/1/69 100/1/68
f 39/1/55 101/1/108 102/1/109 37/1/82
f 101/1/108 50/1/66 49/1/61 102/1/109
f 42/1/85 103/1/110 104/1/111 40/1/84
f 103/1/110 52/1/88 54/1/67 104/1/111
f 43/1/74 105/1/112 106/1/113 44/1/43
f 105/1/112 55/1/72 57/1/70 106/1/113
f 48/1/87 107/1/114 108/1/115 46/1/86
f 107/1/114 59/1/69 58/1/59 108/1/115
f 13/1/76 61/1/40 2/1/23 77/1/22
