# Blender 4.0.2
# www.blender.org
mtllib Front_Bumper_Signal.mtl
o Front_Bumper_Signal
v 1.149006 2.106885 0.418244
v 1.142639 2.103524 0.382897
v 1.142161 2.100410 0.370044
v 1.243346 2.009712 0.418244
v 1.236501 2.003236 0.370044
v 1.145833 2.106546 0.405391
v 1.242868 2.006597 0.405391
v 1.166754 2.089054 0.419851
v 1.239674 2.003575 0.382897
v 1.226054 2.027974 0.419851
v 1.218753 2.021067 0.368437
v 1.159453 2.082147 0.368437
v 1.161507 2.084090 0.382897
v 1.220806 2.023010 0.382897
v 1.164701 2.087111 0.405391
v 1.224001 2.026031 0.405391
v 2.167331 1.030463 0.418244
v 2.163623 1.024292 0.382897
v 2.160486 1.023988 0.370044
v 2.075536 1.130044 0.418244
v 2.068691 1.123569 0.370044
v 2.166817 1.027314 0.405391
v 2.072399 1.129740 0.405391
v 2.150512 1.049172 0.419851
v 2.069206 1.126718 0.382897
v 2.092812 1.111766 0.419851
v 2.085511 1.104859 0.368437
v 2.143211 1.042266 0.368437
v 2.145264 1.044208 0.382897
v 2.087564 1.106802 0.382897
v 2.148458 1.047230 0.405391
v 2.090759 1.109824 0.405391
v 1.146974 2.107625 0.413424
v 1.239531 2.014092 0.419851
v 1.141498 2.102445 0.374864
v 1.145976 2.096029 0.368437
v 1.238533 2.002496 0.374864
v 1.144236 2.105035 0.394144
v 1.244009 2.007676 0.413424
v 1.153277 2.102936 0.419851
v 1.241271 2.005086 0.394144
v 1.234283 2.009127 0.382897
v 1.237478 2.012149 0.405391
v 1.196404 2.058514 0.419851
v 1.232230 2.007185 0.368437
v 1.189103 2.051607 0.368437
v 1.148029 2.097971 0.382897
v 1.191156 2.053550 0.382897
v 1.151224 2.100993 0.405391
v 1.194351 2.056571 0.405391
v 1.163104 2.085600 0.394144
v 1.222403 2.024520 0.394144
v 1.160366 2.083010 0.374864
v 1.219665 2.021930 0.374864
v 1.165842 2.088191 0.413424
v 1.225141 2.027110 0.413424
v 2.167958 1.028393 0.413424
v 2.079698 1.125992 0.419851
v 2.162482 1.023213 0.374864
v 2.156324 1.028040 0.368437
v 2.068064 1.125639 0.374864
v 2.165220 1.025803 0.394144
v 2.073540 1.130819 0.413424
v 2.163625 1.034947 0.419851
v 2.070802 1.128229 0.394144
v 2.074450 1.121027 0.382897
v 2.077645 1.124050 0.405391
v 2.121662 1.080469 0.419851
v 2.072397 1.119085 0.368437
v 2.114361 1.073562 0.368437
v 2.158377 1.029982 0.382897
v 2.116414 1.075505 0.382897
v 2.161572 1.033004 0.405391
v 2.119608 1.078527 0.405391
v 2.146861 1.045719 0.394144
v 2.089161 1.108313 0.394144
v 2.144123 1.043129 0.374864
v 2.086423 1.105723 0.374864
v 2.149599 1.048309 0.413424
v 2.091899 1.110903 0.413424
v 1.238618 2.013228 0.413424
v 1.233143 2.008048 0.374864
v 1.149627 2.099483 0.394144
v 1.235880 2.010638 0.394144
v 1.192754 2.055060 0.394144
v 1.146889 2.096892 0.374864
v 1.190016 2.052470 0.374864
v 1.152365 2.102073 0.413424
v 1.195491 2.057651 0.413424
v 2.078786 1.125129 0.413424
v 2.073310 1.119948 0.374864
v 2.159975 1.031493 0.394144
v 2.076048 1.122539 0.394144
v 2.118011 1.077016 0.394144
v 2.157237 1.028903 0.374864
v 2.115273 1.074426 0.374864
v 2.162713 1.034083 0.413424
v 2.120749 1.079606 0.413424
v 1.141964 2.100048 0.420162
v 1.135597 2.096688 0.384816
v 1.135119 2.093573 0.371962
v 1.236305 2.002875 0.420162
v 1.229460 1.996400 0.371962
v 1.138791 2.099710 0.407309
v 1.235827 1.999760 0.407309
v 1.159713 2.082218 0.421769
v 1.232633 1.996738 0.384815
v 1.219012 2.021137 0.421769
v 1.211711 2.014230 0.370355
v 1.152412 2.075311 0.370355
v 2.160115 1.023811 0.420162
v 2.156407 1.017640 0.384816
v 2.153270 1.017336 0.371962
v 2.068320 1.123392 0.420163
v 2.061476 1.116917 0.371962
v 2.159601 1.020662 0.407309
v 2.065183 1.123088 0.407309
v 2.143295 1.042521 0.421769
v 2.061989 1.120066 0.384815
v 2.085596 1.105114 0.421769
v 2.078295 1.098207 0.370355
v 2.135994 1.035614 0.370355
v 1.139932 2.100789 0.415342
v 1.232489 2.007255 0.421769
v 1.134456 2.095609 0.376782
v 1.138935 2.089192 0.370355
v 1.231492 1.995659 0.376782
v 1.137194 2.098199 0.396062
v 1.236968 2.000839 0.415342
v 1.146235 2.096099 0.421769
v 1.234230 1.998249 0.396062
v 1.189362 2.051677 0.421769
v 1.225188 2.000349 0.370355
v 1.182061 2.044770 0.370355
v 2.160742 1.021741 0.415342
v 2.072482 1.119340 0.421769
v 2.155266 1.016561 0.376782
v 2.149108 1.021388 0.370355
v 2.060848 1.118987 0.376782
v 2.158004 1.019151 0.396062
v 2.066324 1.124167 0.415342
v 2.156409 1.028295 0.421769
v 2.063586 1.121577 0.396062
v 2.114445 1.073817 0.421769
v 2.065181 1.112433 0.370355
v 2.107145 1.066910 0.370355
vn 0.7042 0.6836 -0.1918
vn 0.5952 0.5779 0.5583
vn 0.6476 0.4882 0.5851
vn 0.8835 0.1228 0.4521
vn 0.9987 -0.0506 0.0066
vn 0.9902 -0.0242 -0.1374
vn 0.4006 0.3889 -0.8296
vn 0.4470 0.2936 -0.8450
vn 0.9600 -0.0871 -0.2660
vn 0.7223 -0.0315 -0.6908
vn 0.0056 0.9910 -0.1339
vn -0.0113 0.7240 -0.6897
vn -0.0588 0.9631 -0.2627
vn 0.3066 0.4382 -0.8450
vn -0.0200 0.9998 0.0099
vn 0.1503 0.8787 0.4531
vn 0.5072 0.6328 0.5851
vn 0.7216 0.6652 -0.1918
vn 0.0307 0.9900 -0.1374
vn 0.0049 1.0000 0.0066
vn 0.1716 0.8753 0.4521
vn 0.5233 0.6195 0.5851
vn 0.6100 0.5623 0.5583
vn 0.4105 0.3784 -0.8296
vn 0.3179 0.4300 -0.8450
vn 0.0085 0.7230 -0.6908
vn -0.0338 0.9634 -0.2660
vn 0.0308 0.9900 -0.1374
vn 0.9898 -0.0493 -0.1339
vn 0.7223 -0.0514 -0.6897
vn 0.4545 0.2818 -0.8450
vn 0.9583 -0.1121 -0.2627
vn 0.9971 -0.0754 0.0099
vn 0.6599 0.4714 0.5850
vn 0.8857 0.1013 0.4531
vn -0.6962 0.7178 0.0024
vn -0.6581 0.7298 0.1853
vn -0.3644 0.5798 0.7287
vn 0.1376 0.1336 0.9814
vn 0.2318 0.0340 0.9722
vn 0.5698 -0.3829 0.7272
vn -0.5698 0.3829 -0.7272
vn -0.7100 0.6806 -0.1809
vn -0.1376 -0.1336 -0.9814
vn -0.2318 -0.0340 -0.9722
vn 0.6962 -0.7178 -0.0024
vn 0.6581 -0.7298 -0.1853
vn 0.3644 -0.5799 -0.7287
vn 0.7100 -0.6806 0.1808
vn 0.0410 0.2306 0.9722
vn -0.0410 -0.2306 -0.9722
vn 0.6922 -0.6975 0.1853
vn 0.6781 -0.7349 0.0024
vn 0.5587 -0.3960 0.7287
vn 0.0468 0.2296 0.9722
vn 0.1410 0.1300 0.9814
vn -0.3507 0.5901 0.7272
vn 0.6402 -0.7466 -0.1809
vn 0.3507 -0.5901 -0.7272
vn -0.0468 -0.2296 -0.9722
vn -0.1410 -0.1300 -0.9814
vn -0.6922 0.6975 -0.1853
vn -0.6781 0.7349 -0.0024
vn -0.5588 0.3960 -0.7287
vn -0.6402 0.7466 0.1808
vn 0.2325 0.0281 0.9722
vn 0.1411 0.1300 0.9814
vn -0.2325 -0.0281 -0.9722
vt 0.194445 0.718750
vt 0.194445 0.875000
vt 0.055556 0.875000
vt 0.055556 0.718750
vt 0.194445 1.000000
vt 0.055556 1.000000
vt 0.000000 1.000000
vt 0.000000 0.875000
vt 0.000000 0.718750
vt 0.194445 0.000000
vt 0.194445 0.125000
vt 0.055556 0.125000
vt 0.055556 0.000000
vt 0.194445 0.281250
vt 0.055556 0.281250
vt 0.000000 0.281250
vt 0.000000 0.125000
vt 0.000000 0.000000
vt 1.000000 0.281250
vt 1.000000 0.500000
vt 0.944444 0.500000
vt 0.944444 0.281250
vt 1.000000 0.718750
vt 0.944444 0.718750
vt 0.805555 0.718750
vt 0.805555 0.500000
vt 0.805555 0.281250
vt 0.194445 0.500000
vt 0.055556 0.500000
vt 0.000000 0.500000
vt 0.500000 0.500000
vt 0.500000 0.281250
vt 0.500000 0.718750
vt 1.000000 0.000000
vt 1.000000 0.125000
vt 0.944444 0.125000
vt 0.944444 0.000000
vt 0.805555 0.125000
vt 0.805555 0.000000
vt 0.500000 0.125000
vt 0.500000 0.000000
vt 1.000000 0.875000
vt 0.944444 0.875000
vt 1.000000 1.000000
vt 0.944444 1.000000
vt 0.805555 1.000000
vt 0.805555 0.875000
vt 0.500000 0.875000
vt 0.500000 1.000000
vt 0.194445 0.718750
vt 0.944444 0.500000
vt 0.805555 0.281250
vt 0.805555 0.718750
vt 0.055556 0.500000
vt 0.500000 0.500000
vt 0.500000 0.125000
vt 0.500000 0.875000
s 1
usemtl Glass_Orange_Distorted
f 16/1/1 56/2/1 81/3/1 43/4/1
f 56/2/1 10/5/2 34/6/3 81/3/1
f 81/3/1 34/6/3 4/7/4 39/8/5
f 43/4/1 81/3/1 39/8/5 7/9/6
f 11/10/7 54/11/1 82/12/1 45/13/8
f 54/11/1 14/14/1 42/15/1 82/12/1
f 82/12/1 42/15/1 9/16/6 37/17/9
f 45/13/8 82/12/1 37/17/9 5/18/10
f 2/19/11 38/20/11 83/21/1 47/22/1
f 38/20/11 6/23/11 49/24/1 83/21/1
f 83/21/1 49/24/1 15/25/1 51/26/1
f 47/22/1 83/21/1 51/26/1 13/27/1
f 14/14/1 52/28/1 84/29/1 42/15/1
f 52/28/1 16/1/1 43/4/1 84/29/1
f 84/29/1 43/4/1 7/9/6 41/30/6
f 42/15/1 84/29/1 41/30/6 9/16/6
f 13/27/1 51/26/1 85/31/1 48/32/1
f 51/26/1 15/25/1 50/33/1 85/31/1
f 85/31/1 50/33/1 16/1/1 52/28/1
f 48/32/1 85/31/1 52/28/1 14/14/1
f 3/34/12 35/35/13 86/36/1 36/37/14
f 35/35/13 2/19/11 47/22/1 86/36/1
f 86/36/1 47/22/1 13/27/1 53/38/1
f 36/37/14 86/36/1 53/38/1 12/39/7
f 12/39/7 53/38/1 87/40/1 46/41/7
f 53/38/1 13/27/1 48/32/1 87/40/1
f 87/40/1 48/32/1 14/14/1 54/11/1
f 46/41/7 87/40/1 54/11/1 11/10/7
f 6/23/11 33/42/15 88/43/1 49/24/1
f 33/42/15 1/44/16 40/45/17 88/43/1
f 88/43/1 40/45/17 8/46/2 55/47/1
f 49/24/1 88/43/1 55/47/1 15/25/1
f 15/25/1 55/47/1 89/48/1 50/33/1
f 55/47/1 8/46/2 44/49/2 89/48/1
f 89/48/1 44/49/2 10/5/2 56/2/1
f 50/33/1 89/48/1 56/2/1 16/1/1
f 32/50/18 67/4/18 90/3/18 80/2/18
f 67/4/18 23/9/19 63/8/20 90/3/18
f 90/3/18 63/8/20 20/7/21 58/6/22
f 80/2/18 90/3/18 58/6/22 26/5/23
f 27/10/24 69/13/25 91/12/18 78/11/18
f 69/13/25 21/18/26 61/17/27 91/12/18
f 91/12/18 61/17/27 25/16/28 66/15/18
f 78/11/18 91/12/18 66/15/18 30/14/18
f 18/19/29 71/22/18 92/51/18 62/20/29
f 71/22/18 29/52/18 75/26/18 92/51/18
f 92/51/18 75/26/18 31/53/18 73/24/18
f 62/20/29 92/51/18 73/24/18 22/23/29
f 30/14/18 66/15/18 93/54/18 76/28/18
f 66/15/18 25/16/28 65/30/28 93/54/18
f 93/54/18 65/30/28 23/9/19 67/4/18
f 76/28/18 93/54/18 67/4/18 32/50/18
f 29/52/18 72/32/18 94/55/18 75/26/18
f 72/32/18 30/14/18 76/28/18 94/55/18
f 94/55/18 76/28/18 32/50/18 74/33/18
f 75/26/18 94/55/18 74/33/18 31/53/18
f 19/34/30 60/37/31 95/36/18 59/35/32
f 60/37/31 28/39/24 77/38/18 95/36/18
f 95/36/18 77/38/18 29/52/18 71/22/18
f 59/35/32 95/36/18 71/22/18 18/19/29
f 28/39/24 70/41/24 96/56/18 77/38/18
f 70/41/24 27/10/24 78/11/18 96/56/18
f 96/56/18 78/11/18 30/14/18 72/32/18
f 77/38/18 96/56/18 72/32/18 29/52/18
f 22/23/29 73/24/18 97/43/18 57/42/33
f 73/24/18 31/53/18 79/47/18 97/43/18
f 97/43/18 79/47/18 24/46/23 64/45/34
f 57/42/33 97/43/18 64/45/34 17/44/35
f 31/53/18 74/33/18 98/57/18 79/47/18
f 74/33/18 32/50/18 80/2/18 98/57/18
f 98/57/18 80/2/18 26/5/23 68/49/23
f 79/47/18 98/57/18 68/49/23 24/46/23
usemtl Black_Plastic/Metal
f 33/42/15 6/23/11 104/23/36 123/42/37
f 1/44/16 33/42/15 123/42/37 99/44/38
f 34/6/3 10/5/2 108/5/39 124/6/40
f 4/7/4 34/6/3 124/6/40 102/7/41
f 35/35/13 3/34/12 101/34/42 125/35/43
f 2/19/11 35/35/13 125/35/43 100/19/36
f 36/37/14 12/39/7 110/39/44 126/37/45
f 3/34/12 36/37/14 126/37/45 101/34/42
f 37/17/9 9/16/6 107/16/46 127/17/47
f 5/18/10 37/17/9 127/17/47 103/18/48
f 38/20/11 2/19/11 100/19/36 128/20/36
f 6/23/11 38/20/11 128/20/36 104/23/36
f 39/8/5 4/7/4 102/7/41 129/8/49
f 7/9/6 39/8/5 129/8/49 105/9/46
f 40/45/17 1/44/16 99/44/38 130/45/50
f 8/46/2 40/45/17 130/45/50 106/46/39
f 41/30/6 7/9/6 105/9/46 131/30/46
f 9/16/6 41/30/6 131/30/46 107/16/46
f 44/49/2 8/46/2 106/46/39 132/49/39
f 10/5/2 44/49/2 132/49/39 108/5/39
f 45/13/8 5/18/10 103/18/48 133/13/51
f 11/10/7 45/13/8 133/13/51 109/10/44
f 46/41/7 11/10/7 109/10/44 134/41/44
f 12/39/7 46/41/7 134/41/44 110/39/44
f 22/23/29 57/42/33 135/42/52 116/23/53
f 57/42/33 17/44/35 111/44/54 135/42/52
f 26/5/23 58/6/22 136/6/55 120/5/56
f 58/6/22 20/7/21 114/7/57 136/6/55
f 19/34/30 59/35/32 137/35/58 113/34/59
f 59/35/32 18/19/29 112/19/53 137/35/58
f 28/39/24 60/37/31 138/37/60 122/39/61
f 60/37/31 19/34/30 113/34/59 138/37/60
f 25/16/28 61/17/27 139/17/62 119/16/63
f 61/17/27 21/18/26 115/18/64 139/17/62
f 18/19/29 62/20/29 140/20/53 112/19/53
f 62/20/29 22/23/29 116/23/53 140/20/53
f 20/7/21 63/8/20 141/8/65 114/7/57
f 63/8/20 23/9/19 117/9/63 141/8/65
f 17/44/35 64/45/34 142/45/66 111/44/54
f 64/45/34 24/46/23 118/46/67 142/45/66
f 23/9/19 65/30/28 143/30/63 117/9/63
f 65/30/28 25/16/28 119/16/63 143/30/63
f 24/46/23 68/49/23 144/49/56 118/46/67
f 68/49/23 26/5/23 120/5/56 144/49/56
f 21/18/26 69/13/25 145/13/68 115/18/64
f 69/13/25 27/10/24 121/10/61 145/13/68
f 27/10/24 70/41/24 146/41/61 121/10/61
f 70/41/24 28/39/24 122/39/61 146/41/61
