# Blender 4.0.2
# www.blender.org
mtllib obj17.mtl
o obj17
v 0.016839 -0.073718 0.848845
v 0.034921 -0.124226 0.998715
v 0.012112 -0.067639 0.849005
v 0.036198 -0.058614 0.848245
v 0.054569 -0.108941 0.999302
v 0.059422 -0.115157 0.998208
v 0.063448 -0.128462 0.996291
v 0.034473 -0.076342 0.848002
v 0.040179 -0.071888 0.847826
v 0.021558 -0.079788 0.848684
v 0.039771 -0.130440 0.997622
v 0.020838 -0.057979 0.843780
v 0.031492 -0.059827 0.843436
v 0.025757 -0.064297 0.843614
v 0.020022 -0.068766 0.843792
v 0.015103 -0.062448 0.843959
v 0.080694 -0.189721 1.144263
v 0.051715 -0.137587 0.995941
v 0.057581 -0.133025 0.996116
v 0.086722 -0.185049 1.144797
v 0.036410 -0.066146 0.843269
v 0.030675 -0.070615 0.843447
v 0.040920 -0.064688 0.848084
v 0.064270 -0.121366 0.997116
v 0.041613 -0.112571 0.999715
v 0.070778 -0.164694 1.151443
v 0.047480 -0.108008 0.999890
v 0.062411 -0.179604 1.153763
v 0.073437 -0.181299 1.152216
v 0.068444 -0.174922 1.154300
v 0.077722 -0.165463 1.150509
v 0.082688 -0.171800 1.148439
v 0.057780 -0.180928 1.148739
v 0.044617 -0.136647 0.996530
v 0.062745 -0.187264 1.146669
v 0.087651 -0.178133 1.146370
v 0.079470 -0.176617 1.152753
v 0.074476 -0.170239 1.154837
v 0.894698 -1.196248 0.971213
v 0.934315 -1.232164 0.817555
v 0.940029 -1.227718 0.817380
v 0.035746 -0.117134 0.999540
v 0.064749 -0.169367 1.150909
v 0.028769 -0.080795 0.848177
v 0.012776 -0.060242 0.848729
v 0.018482 -0.055788 0.848554
v 0.084462 -0.182995 1.150670
v 0.067404 -0.185982 1.151680
v 0.078430 -0.187677 1.150133
v 0.024941 -0.075084 0.843626
v 0.916545 -1.229377 0.818392
v 0.875868 -1.204411 0.970251
v 0.871010 -1.198154 0.969486
v 0.911817 -1.223313 0.818551
v 0.866158 -1.191903 0.968722
v 0.918311 -1.211619 0.818086
v 0.878707 -1.175651 0.968696
v 0.924024 -1.207175 0.817910
v 0.935920 -1.214294 0.817791
v 0.895520 -1.189130 0.970838
v 0.940657 -1.220372 0.817631
v 0.927731 -1.222870 0.813084
v 0.938385 -1.224719 0.812739
v 0.932650 -1.229188 0.812918
v 0.872840 -1.180214 0.968521
v 0.833380 -1.144121 1.119525
v 0.866974 -1.184776 0.968346
v 0.827359 -1.148802 1.118991
v 0.921996 -1.227339 0.813263
v 0.926915 -1.233657 0.813096
v 0.922812 -1.216552 0.813251
v 0.933466 -1.218400 0.812906
v 0.833940 -1.158155 1.126475
v 0.832915 -1.169305 1.127683
v 0.838948 -1.164623 1.128220
v 0.849358 -1.164770 1.125090
v 0.888831 -1.200811 0.971038
v 0.931190 -1.208227 0.817950
v 0.890661 -1.182871 0.970073
v 0.850295 -1.157823 1.124360
v 0.885806 -1.176618 0.969309
v 0.845321 -1.151392 1.122626
v 0.825394 -1.166874 1.120855
v 0.820423 -1.160448 1.119123
v 0.830366 -1.173304 1.122589
v 0.839973 -1.153473 1.127012
v 0.844980 -1.159940 1.128757
v 0.912599 -1.216063 0.818261
v 0.843337 -1.169451 1.124555
v 0.882965 -1.205374 0.970863
v 0.928603 -1.236608 0.817731
v 0.917077 -1.221021 0.813429
v 0.828933 -1.151688 1.124730
v 0.827908 -1.162838 1.125938
v 0.834966 -1.147006 1.125267
v 0.024188 -0.051334 0.848379
v 0.031468 -0.052531 0.848405
v 0.026573 -0.053509 0.843602
v 0.058721 -0.174039 1.150375
v 0.074666 -0.194392 1.143730
v 0.072397 -0.192360 1.149596
v 0.067708 -0.193596 1.144600
v 0.928547 -1.212082 0.813072
v 0.921279 -1.235451 0.818232
v 0.840350 -1.144964 1.120893
v 0.837315 -1.174132 1.124021
v 0.821338 -1.153482 1.118457
v 0.822901 -1.156370 1.124194
vn -0.7098 -0.5399 -0.4525
vn -0.9604 -0.2754 0.0420
vn -0.9193 -0.2534 -0.3012
vn 0.7459 0.5882 -0.3126
vn 0.5091 0.8288 0.2321
vn 0.7928 0.6007 0.1037
vn 0.8433 -0.4447 -0.3018
vn 0.4655 -0.6211 -0.6305
vn 0.7382 -0.3896 -0.5507
vn -0.4977 -0.7233 -0.4786
vn -0.7927 -0.6002 -0.1066
vn -0.3126 0.3659 -0.8766
vn 0.2964 0.2550 -0.9204
vn -0.0321 0.0013 -0.9995
vn -0.3125 0.3660 -0.8766
vn -0.3070 -0.2145 -0.9272
vn -0.5462 0.1325 -0.8271
vn 0.6092 -0.7916 0.0468
vn 0.2305 -0.8958 -0.3799
vn 0.5775 -0.7283 -0.3688
vn 0.8419 -0.5362 0.0608
vn 0.5775 -0.7284 -0.3688
vn 0.4226 0.0222 -0.9060
vn 0.1527 -0.2342 -0.9601
vn 0.8794 0.3185 -0.3539
vn 0.7928 0.6006 0.1037
vn 0.9601 0.2760 -0.0456
vn -0.5788 0.7303 0.3627
vn -0.2024 0.7395 0.6420
vn -0.2316 0.8989 0.3720
vn -0.3780 -0.1828 0.9076
vn 0.0989 -0.2382 0.9662
vn -0.1232 0.0452 0.9914
vn 0.5273 0.6751 0.5160
vn 0.7673 0.4531 0.4538
vn -0.7928 -0.6001 -0.1065
vn -0.8611 -0.3639 0.3550
vn -0.9604 -0.2753 0.0420
vn -0.5099 -0.8266 -0.2382
vn -0.7082 -0.6472 0.2821
vn -0.7928 -0.6001 -0.1066
vn 0.9385 0.1830 0.2928
vn 0.3900 0.0046 0.9208
vn 0.1620 0.2239 0.9611
vn 0.8236 -0.4566 0.3363
vn 0.6043 -0.7827 -0.1488
vn 0.8545 -0.5074 -0.1112
vn -0.8444 0.4460 0.2967
vn -0.4919 0.5585 0.6680
vn -0.5788 0.7303 0.3629
vn 0.1927 -0.7812 -0.5938
vn -0.8520 0.5102 -0.1173
vn -0.6139 0.7821 -0.1076
vn 0.5778 -0.2819 0.7659
vn -0.2205 -0.4546 0.8630
vn 0.3401 -0.5276 0.7784
vn -0.1145 -0.3871 -0.9149
vn -0.3070 -0.2146 -0.9272
vn -0.7090 -0.5408 -0.4525
vn -0.5016 -0.8647 0.0265
vn -0.7790 -0.6179 -0.1071
vn -0.8354 -0.2896 -0.4672
vn -0.7789 -0.6179 -0.1073
vn -0.9323 -0.2839 -0.2239
vn -0.5036 0.6238 -0.5977
vn -0.2315 0.9359 -0.2654
vn -0.2103 0.8288 -0.5185
vn 0.7452 0.5891 -0.3126
vn 0.9341 0.2829 0.2177
vn 0.9367 0.2924 -0.1926
vn 0.5555 -0.0968 -0.8259
vn 0.2555 -0.3636 -0.8958
vn -0.5734 0.7500 -0.3297
vn -0.3113 0.9451 0.0998
vn -0.8212 0.4550 -0.3443
vn -0.6163 0.7826 0.0883
vn -0.5734 0.7499 -0.3299
vn 0.2555 -0.3637 -0.8958
vn -0.0268 -0.5345 -0.8447
vn -0.2139 0.2368 -0.9477
vn -0.1818 0.1224 0.9757
vn -0.2468 -0.3514 0.9031
vn 0.0388 -0.1629 0.9859
vn 0.6833 -0.3981 0.6120
vn 0.5748 -0.7515 0.3237
vn 0.8237 -0.4566 0.3363
vn 0.5155 0.7858 -0.3416
vn 0.7794 0.6178 0.1041
vn 0.7794 0.6178 0.1042
vn 0.7968 0.3288 0.5069
vn 0.5020 0.8643 -0.0302
vn 0.6391 0.6178 0.4581
vn -0.9323 -0.2840 -0.2239
vn -0.7939 -0.5371 0.2850
vn -0.9590 -0.2435 0.1448
vn -0.5550 -0.7571 0.3447
vn 0.1237 0.3466 0.9298
vn 0.2813 0.0706 0.9570
vn -0.7249 0.3974 -0.5627
vn 0.4374 -0.6352 0.6365
vn 0.2324 -0.9372 0.2602
vn 0.5748 -0.7515 0.3238
vn 0.2821 -0.9467 -0.1556
vn -0.4266 0.0138 -0.9043
vn -0.3070 -0.2147 -0.9272
vn -0.4079 0.4332 0.8037
vn -0.4726 -0.1307 0.8715
vn -0.1118 0.6038 0.7893
vn -0.1819 0.1224 0.9757
vn -0.2847 0.9558 -0.0727
vn 0.5085 0.8425 -0.1780
vn 0.0216 0.5891 -0.8078
vn -0.1145 -0.3872 -0.9149
vn -0.2024 0.7396 0.6419
vn 0.5778 -0.2820 0.7659
vn -0.7424 0.3348 0.5802
vn -0.3781 -0.1828 0.9076
vn 0.2937 -0.9559 -0.0050
vn 0.0280 -0.7028 0.7108
vn -0.4678 -0.8745 0.1281
vn 0.5555 -0.0968 -0.8258
vn 0.9367 0.2924 -0.1925
vn 0.1022 0.4338 -0.8952
vn -0.2103 0.8288 -0.5186
vn 0.2821 -0.9467 -0.1557
vn -0.4790 -0.8189 -0.3161
vn -0.7249 0.3973 -0.5628
vn -0.4267 0.0138 -0.9043
vn 0.6834 -0.3981 0.6120
vn 0.2813 0.0707 0.9570
vn 0.4153 0.8550 0.3105
vn 0.1570 -0.8204 0.5498
vn -0.5551 -0.7570 0.3447
vn -0.8543 0.5187 0.0339
vn -0.6560 0.1758 0.7340
vn -0.6139 0.7821 -0.1075
vn -0.2847 0.9559 -0.0727
vn -0.3125 0.3659 -0.8766
vn -0.6138 0.7821 -0.1076
vn 0.2965 0.2550 -0.9204
vn 0.4227 0.0222 -0.9060
vn 0.1527 -0.2341 -0.9601
vn 0.4656 -0.6211 -0.6305
vn -0.5461 0.1325 -0.8271
vn -0.3071 -0.2145 -0.9272
vn -0.7424 0.3348 0.5803
vn 0.1620 0.2239 0.9610
vn -0.4919 0.5584 0.6680
vn -0.1231 0.0452 0.9914
vn 0.2937 -0.9559 -0.0049
vn 0.0280 -0.7028 0.7109
vn 0.6093 -0.7916 0.0468
vn 0.9385 0.1831 0.2928
vn 0.5085 0.8425 -0.1781
vn -0.2023 0.7395 0.6420
vn -0.2317 0.8989 0.3720
vn 0.9601 0.2760 -0.0457
vn -0.9604 -0.2753 0.0421
vn -0.7424 0.3349 0.5802
vn -0.5098 -0.8266 -0.2382
vn 0.2305 -0.8959 -0.3799
vn -0.0268 -0.5346 -0.8447
vn 0.2822 -0.9466 -0.1557
vn 0.6044 -0.7827 -0.1488
vn 0.2964 0.2551 -0.9204
vn 0.1022 0.4339 -0.8952
vn -0.0269 -0.5345 -0.8447
vn -0.3069 -0.2146 -0.9272
vn 0.4374 -0.6353 0.6365
vn -0.4078 0.4332 0.8037
vn 0.7969 0.3288 0.5069
vn 0.1238 0.3466 0.9298
vn -0.2468 -0.3513 0.9031
vn 0.9341 0.2830 0.2177
vn 0.5021 0.8643 -0.0302
vn 0.5155 0.7859 -0.3415
vn 0.4153 0.8551 0.3105
vn 0.5020 0.8643 -0.0301
vn 0.2324 -0.9372 0.2603
vn -0.7249 0.3973 -0.5627
vn -0.9590 -0.2435 0.1447
vn -0.6139 0.7820 -0.1075
vn -0.2847 0.9559 -0.0726
vn 0.5091 0.8288 0.2320
vn 0.8433 -0.4446 -0.3018
vn -0.7928 -0.6000 -0.1071
vn 0.0215 0.5891 -0.8078
vn 0.8419 -0.5361 0.0608
vn -0.2205 -0.4545 0.8630
vn 0.5748 -0.7515 0.3239
vn -0.7424 0.3349 0.5803
vn 0.5775 -0.7283 -0.3689
vn 0.2304 -0.8959 -0.3799
vn 0.1926 -0.7812 -0.5938
vn -0.5787 0.7302 0.3631
vn 0.3402 -0.5276 0.7784
vn -0.7090 -0.5409 -0.4525
vn -0.7790 -0.6178 -0.1071
vn 0.7451 0.5891 -0.3126
vn 0.5555 -0.0967 -0.8259
vn -0.3112 0.9451 0.0998
vn 0.2554 -0.3637 -0.8958
vn 0.5156 0.7858 -0.3416
vn 0.5747 -0.7514 0.3241
vn -0.6139 0.7820 -0.1076
vn -0.2848 0.9558 -0.0726
vn -0.9193 -0.2533 -0.3012
vn -0.4977 -0.7234 -0.4786
vn 0.5084 0.8425 -0.1781
vn 0.8419 -0.5362 0.0607
vn -0.9604 -0.2754 0.0421
vn 0.8545 -0.5075 -0.1112
vn -0.4789 -0.8189 -0.3161
vn -0.6162 0.7826 0.0883
vn -0.6138 0.7821 -0.1075
vt 0.000000 0.000000
s 0
usemtl mat3
f 1/1/1 2/1/2 3/1/3
f 4/1/4 5/1/5 6/1/6
f 7/1/7 8/1/8 9/1/9
f 10/1/10 11/1/11 1/1/1
f 12/1/12 13/1/13 14/1/14
f 12/1/15 15/1/16 16/1/17
f 17/1/18 18/1/19 19/1/20
f 20/1/21 19/1/22 7/1/7
f 14/1/14 21/1/23 22/1/24
f 23/1/25 6/1/26 24/1/27
f 25/1/28 26/1/29 27/1/30
f 28/1/31 29/1/32 30/1/33
f 6/1/26 31/1/34 32/1/35
f 11/1/36 33/1/37 2/1/38
f 34/1/39 35/1/40 11/1/41
f 24/1/27 32/1/35 36/1/42
f 30/1/33 37/1/43 38/1/44
f 39/1/45 40/1/46 41/1/47
f 42/1/48 43/1/49 25/1/50
f 19/1/20 44/1/51 8/1/8
f 45/1/52 25/1/50 46/1/53
f 29/1/32 47/1/54 37/1/43
f 48/1/55 49/1/56 29/1/32
f 14/1/14 50/1/57 15/1/58
f 51/1/59 52/1/60 53/1/61
f 54/1/62 53/1/63 55/1/64
f 56/1/65 57/1/66 58/1/67
f 59/1/68 60/1/69 61/1/70
f 62/1/14 63/1/71 64/1/72
f 65/1/73 66/1/74 57/1/66
f 67/1/75 68/1/76 65/1/77
f 69/1/58 64/1/78 70/1/79
f 71/1/80 72/1/13 62/1/14
f 73/1/81 74/1/82 75/1/83
f 76/1/84 77/1/85 39/1/86
f 78/1/87 79/1/88 59/1/68
f 79/1/89 80/1/90 60/1/69
f 81/1/91 82/1/92 79/1/89
f 55/1/93 83/1/94 84/1/95
f 53/1/61 85/1/96 83/1/94
f 86/1/97 75/1/83 87/1/98
f 88/1/99 65/1/77 56/1/65
f 89/1/100 90/1/101 77/1/102
f 77/1/102 91/1/103 40/1/46
f 92/1/104 62/1/14 69/1/105
f 93/1/106 94/1/107 73/1/81
f 95/1/108 73/1/109 86/1/97
f 96/1/110 97/1/111 98/1/112
f 23/1/25 9/1/9 21/1/23
f 45/1/52 16/1/17 3/1/3
f 44/1/51 10/1/10 50/1/113
f 26/1/114 38/1/44 31/1/34
f 20/1/21 36/1/42 47/1/115
f 99/1/116 33/1/37 28/1/117
f 100/1/118 101/1/119 102/1/120
f 41/1/47 63/1/121 61/1/122
f 78/1/87 103/1/123 58/1/124
f 91/1/125 104/1/126 70/1/79
f 88/1/127 92/1/128 54/1/62
f 76/1/129 80/1/90 87/1/130
f 66/1/74 95/1/108 105/1/131
f 106/1/132 74/1/82 85/1/133
f 107/1/134 84/1/95 108/1/135
f 46/1/136 16/1/17 45/1/52
f 96/1/137 12/1/138 46/1/139
f 97/1/111 13/1/140 98/1/112
f 4/1/4 21/1/141 13/1/140
f 9/1/9 22/1/142 21/1/141
f 8/1/143 50/1/113 22/1/142
f 15/1/16 3/1/3 16/1/144
f 50/1/113 1/1/1 15/1/145
f 30/1/33 99/1/146 28/1/117
f 38/1/147 43/1/148 30/1/149
f 100/1/150 49/1/56 101/1/151
f 17/1/152 47/1/54 49/1/56
f 38/1/44 32/1/35 31/1/34
f 37/1/43 36/1/153 32/1/35
f 35/1/40 28/1/31 33/1/37
f 102/1/120 48/1/55 35/1/40
f 27/1/30 97/1/154 96/1/110
f 26/1/155 5/1/5 27/1/156
f 24/1/157 9/1/9 23/1/25
f 36/1/42 7/1/7 24/1/27
f 3/1/3 42/1/48 45/1/52
f 2/1/158 99/1/159 42/1/48
f 44/1/51 34/1/160 10/1/10
f 18/1/161 102/1/120 34/1/160
f 70/1/162 40/1/46 91/1/163
f 64/1/78 41/1/47 40/1/164
f 72/1/165 61/1/122 63/1/121
f 103/1/166 59/1/68 72/1/165
f 71/1/80 58/1/124 103/1/166
f 92/1/104 56/1/65 71/1/80
f 104/1/126 69/1/58 70/1/167
f 51/1/59 92/1/104 69/1/168
f 106/1/132 75/1/83 74/1/82
f 89/1/169 87/1/130 75/1/83
f 93/1/106 107/1/134 108/1/135
f 95/1/108 68/1/76 93/1/170
f 82/1/92 87/1/98 80/1/171
f 105/1/131 86/1/172 82/1/92
f 74/1/173 83/1/94 85/1/133
f 94/1/107 84/1/95 83/1/94
f 61/1/70 39/1/86 41/1/47
f 60/1/174 76/1/84 39/1/86
f 58/1/124 81/1/175 78/1/176
f 57/1/66 105/1/177 81/1/178
f 90/1/101 104/1/126 91/1/163
f 106/1/132 52/1/60 90/1/179
f 55/1/93 88/1/180 54/1/62
f 84/1/181 67/1/75 55/1/93
f 46/1/182 27/1/156 96/1/183
f 1/1/1 11/1/41 2/1/158
f 4/1/4 97/1/154 5/1/184
f 7/1/185 19/1/22 8/1/8
f 10/1/10 34/1/160 11/1/186
f 12/1/12 98/1/187 13/1/140
f 12/1/15 14/1/14 15/1/145
f 17/1/152 100/1/150 18/1/19
f 20/1/188 17/1/152 19/1/20
f 14/1/14 13/1/140 21/1/23
f 23/1/25 4/1/4 6/1/6
f 25/1/50 43/1/148 26/1/29
f 28/1/31 48/1/189 29/1/32
f 6/1/26 5/1/5 31/1/34
f 11/1/41 35/1/40 33/1/37
f 34/1/160 102/1/120 35/1/40
f 24/1/157 6/1/26 32/1/35
f 30/1/33 29/1/32 37/1/43
f 39/1/86 77/1/190 40/1/164
f 42/1/48 99/1/191 43/1/148
f 19/1/192 18/1/193 44/1/194
f 45/1/52 42/1/48 25/1/195
f 29/1/32 49/1/56 47/1/115
f 48/1/55 101/1/119 49/1/196
f 14/1/14 22/1/24 50/1/57
f 51/1/59 104/1/126 52/1/60
f 54/1/62 51/1/197 53/1/198
f 56/1/65 65/1/77 57/1/66
f 59/1/199 79/1/88 60/1/174
f 62/1/14 72/1/165 63/1/200
f 65/1/77 68/1/76 66/1/201
f 67/1/75 107/1/134 68/1/76
f 69/1/58 62/1/14 64/1/202
f 71/1/80 103/1/123 72/1/165
f 73/1/81 94/1/107 74/1/82
f 76/1/84 89/1/169 77/1/102
f 78/1/203 81/1/91 79/1/89
f 79/1/88 82/1/92 80/1/171
f 81/1/178 105/1/131 82/1/92
f 55/1/93 53/1/61 83/1/94
f 53/1/61 52/1/60 85/1/133
f 86/1/97 73/1/81 75/1/83
f 88/1/99 67/1/75 65/1/77
f 89/1/100 106/1/132 90/1/101
f 77/1/204 90/1/101 91/1/103
f 92/1/104 71/1/80 62/1/14
f 93/1/106 108/1/135 94/1/107
f 95/1/108 93/1/106 73/1/81
f 46/1/205 12/1/12 16/1/144
f 96/1/206 98/1/112 12/1/12
f 97/1/111 4/1/4 13/1/140
f 4/1/4 23/1/25 21/1/141
f 9/1/9 8/1/8 22/1/24
f 8/1/8 44/1/51 50/1/57
f 15/1/16 1/1/1 3/1/207
f 50/1/113 10/1/208 1/1/1
f 30/1/149 43/1/148 99/1/146
f 38/1/147 26/1/29 43/1/148
f 100/1/150 17/1/152 49/1/196
f 17/1/18 20/1/21 47/1/115
f 38/1/44 37/1/43 32/1/35
f 37/1/43 47/1/54 36/1/153
f 35/1/40 48/1/55 28/1/31
f 102/1/120 101/1/151 48/1/55
f 27/1/30 5/1/5 97/1/209
f 26/1/29 31/1/34 5/1/184
f 24/1/157 7/1/185 9/1/9
f 36/1/42 20/1/210 7/1/7
f 3/1/3 2/1/211 42/1/48
f 2/1/211 33/1/37 99/1/191
f 44/1/194 18/1/19 34/1/39
f 18/1/161 100/1/150 102/1/120
f 70/1/79 64/1/78 40/1/164
f 64/1/202 63/1/121 41/1/212
f 72/1/165 59/1/68 61/1/122
f 103/1/123 78/1/176 59/1/199
f 71/1/80 56/1/65 58/1/124
f 92/1/104 88/1/180 56/1/65
f 104/1/213 51/1/59 69/1/58
f 51/1/59 54/1/62 92/1/128
f 106/1/132 89/1/169 75/1/83
f 89/1/100 76/1/84 87/1/130
f 93/1/170 68/1/76 107/1/134
f 95/1/108 66/1/201 68/1/214
f 82/1/92 86/1/97 87/1/98
f 105/1/131 95/1/108 86/1/97
f 74/1/173 94/1/107 83/1/94
f 94/1/107 108/1/135 84/1/95
f 61/1/70 60/1/69 39/1/45
f 60/1/69 80/1/90 76/1/129
f 58/1/124 57/1/66 81/1/91
f 57/1/66 66/1/74 105/1/131
f 90/1/101 52/1/60 104/1/126
f 106/1/132 85/1/96 52/1/60
f 55/1/93 67/1/75 88/1/127
f 84/1/95 107/1/134 67/1/75
f 46/1/215 25/1/50 27/1/30
o Plane
v -8.371299 -8.358944 -0.093540
v 8.371299 -8.358944 -0.093540
v -8.371299 8.383654 -0.093540
v 8.371299 8.383654 -0.093540
vn -0.0000 -0.0000 1.0000
vt 0.000000 0.000000
vt 1.000000 0.000000
vt 1.000000 1.000000
vt 0.000000 1.000000
s 0
usemtl Material.002
f 109/2/216 110/3/216 112/4/216 111/5/216
