# Blender 4.0.2
# www.blender.org
mtllib Rear_Window.mtl
o Rear_Window
v -1.046409 -0.760142 1.012501
v -0.932279 -0.672391 1.109974
v -1.153412 -0.640403 1.008911
v -1.033788 -0.563261 1.105772
v -1.234183 -0.543147 1.003266
v -1.123141 -0.466283 1.098093
v -0.931963 -0.881663 1.014571
v -0.827638 -0.782969 1.111753
v -0.816972 -1.002669 1.012501
v -0.723030 -0.893578 1.109974
v -0.703347 -1.116144 1.008911
v -0.619694 -1.000979 1.105772
v -0.610718 -1.202181 1.003266
v -0.527817 -1.095571 1.098093
v -0.775476 -0.733622 1.160343
v -0.875214 -0.628515 1.158710
v -0.973976 -0.524691 1.154203
v -1.067621 -0.427851 1.145634
v -0.984126 -0.931010 0.965980
v -0.879801 -0.832316 1.063162
v -1.103475 -0.804018 0.963765
v -0.989344 -0.716267 1.061238
v -1.213225 -0.678973 0.960480
v -1.093600 -0.601832 1.057342
v -1.289704 -0.581579 0.956487
v -1.178662 -0.504715 1.050552
v -1.195283 -0.591586 1.006864
v -1.079097 -0.514573 1.102752
v -1.102435 -0.698249 1.010810
v -0.984192 -0.616717 1.108164
v -0.989396 -0.821102 1.013926
v -0.880015 -0.727733 1.111249
v -1.168942 -0.414018 1.090785
v -1.276249 -0.486431 0.996712
v -0.676059 -0.839032 1.158710
v -0.577868 -0.943397 1.154203
v -0.486367 -1.042265 1.145634
v -0.863944 -1.057215 0.963765
v -0.770001 -0.948123 1.061238
v -0.745174 -1.173727 0.960480
v -0.661521 -1.058562 1.057342
v -0.652168 -1.255486 0.956487
v -0.569268 -1.148876 1.050552
v -0.656927 -1.160656 1.006864
v -0.573593 -1.048917 1.102752
v -0.758279 -1.062039 1.010810
v -0.670319 -0.948497 1.108164
v -0.874678 -0.942365 1.013926
v -0.775390 -0.838326 1.111249
v -0.478171 -1.144198 1.090785
v -0.556421 -1.247326 0.996712
v -0.825323 -0.681048 1.159910
v -0.925071 -0.575951 1.156841
v -1.021004 -0.476067 1.150696
v -1.115288 -0.377811 1.138329
v -1.253376 -0.630093 0.958920
v -1.137190 -0.553080 1.054808
v -1.161556 -0.739015 0.962133
v -1.043314 -0.657483 1.059487
v -1.044087 -0.867786 0.965264
v -0.934705 -0.774417 1.062587
v -1.222596 -0.450224 1.043240
v -1.329903 -0.522638 0.952216
v -0.725746 -0.786307 1.159910
v -0.626339 -0.891727 1.156841
v -0.531926 -0.993048 1.150696
v -0.439046 -1.092633 1.138329
v -0.698594 -1.216525 0.958920
v -0.615260 -1.104787 1.054808
v -0.802259 -1.118809 0.962133
v -0.714299 -1.005268 1.059487
v -0.924322 -0.994384 0.965264
v -0.825034 -0.890345 1.062587
v -0.517296 -1.195762 1.043240
v -0.595546 -1.298891 0.952216
v -1.268583 -0.714077 0.903795
v -1.106448 -0.290441 1.169674
v -1.156288 -0.844228 0.906754
v -1.419338 -0.488761 0.899057
v -1.340415 -0.617041 0.901714
v -1.314771 -0.422903 0.980523
v -1.210488 -0.356617 1.074169
v -1.007507 -0.385908 1.185014
v -0.909851 -0.482452 1.194390
v -0.813962 -0.580890 1.199174
v -1.032215 -0.976505 0.909108
v -0.783292 -1.227055 0.903795
v -0.351321 -1.088650 1.169674
v -0.907019 -1.107718 0.906754
v -0.566678 -1.390066 0.899057
v -0.690386 -1.304154 0.901714
v -0.495126 -1.289310 0.980523
v -0.423161 -1.188861 1.074169
v -0.719241 -0.680422 1.200654
v -0.441157 -0.984569 1.185014
v -0.532140 -0.881712 1.194390
v -0.625112 -0.780514 1.199174
v -1.216331 -0.776206 0.905189
v -1.158505 -0.323470 1.121920
v -1.094618 -0.910710 0.908323
v -1.378695 -0.556123 0.900433
v -1.306844 -0.665334 0.902733
v -1.367103 -0.455879 0.938728
v -1.262544 -0.389771 1.026377
v -0.766504 -0.630567 1.200293
v -1.056835 -0.338117 1.177824
v -0.958497 -0.433957 1.190422
v -0.861704 -0.531478 1.197258
v -0.842430 -1.171440 0.905189
v -0.387184 -1.138796 1.121920
v -0.969981 -1.042458 0.908323
v -0.631684 -1.345751 0.900433
v -0.736745 -1.267958 0.902733
v -0.530952 -1.339733 0.938728
v -0.459150 -1.238999 1.026377
v -0.672082 -0.730376 1.200293
v -0.396174 -1.036470 1.177824
v -0.486416 -0.932971 1.190422
v -0.578422 -0.830921 1.197258
v -1.271297 -0.716422 0.913458
v -1.271928 -0.716680 0.909994
v -1.111205 -0.296807 1.176394
v -1.110124 -0.293079 1.175668
v -1.159481 -0.846981 0.912969
v -1.158905 -0.846637 0.916426
v -1.421117 -0.492403 0.908795
v -1.422972 -0.490735 0.905325
v -1.344027 -0.619271 0.907908
v -1.343533 -0.618840 0.911380
v -1.318447 -0.427602 0.988948
v -1.318621 -0.424912 0.986649
v -1.214343 -0.358981 1.080164
v -1.213979 -0.361674 1.082456
v -1.013805 -0.390599 1.191714
v -1.010956 -0.388544 1.191142
v -0.915932 -0.487260 1.201202
v -0.913090 -0.485207 1.200581
v -0.817106 -0.583706 1.205386
v -0.819799 -0.585908 1.206036
v -1.035274 -0.979398 0.915327
v -1.034794 -0.978944 0.918780
v -0.786077 -1.230250 0.909994
v -0.785784 -1.229634 0.913458
v -0.354158 -1.092173 1.175668
v -0.357940 -1.093046 1.176394
v -0.909569 -1.110198 0.916426
v -0.909945 -1.110754 0.912969
v -0.568851 -1.393585 0.905325
v -0.570413 -1.391640 0.908795
v -0.692356 -1.307168 0.911380
v -0.692814 -1.307637 0.907908
v -0.497345 -1.293043 0.986649
v -0.500021 -1.292720 0.988948
v -0.428404 -1.192067 1.082456
v -0.425736 -1.192579 1.080164
v -0.724819 -0.685699 1.207532
v -0.722300 -0.683316 1.206872
v -0.443980 -0.987866 1.191142
v -0.446190 -0.990597 1.191714
v -0.535070 -0.884793 1.200581
v -0.537278 -0.887517 1.201202
v -0.630446 -0.786064 1.206036
v -0.628097 -0.783497 1.205386
v -1.219595 -0.778890 0.911397
v -1.218974 -0.778606 0.914858
v -1.162243 -0.326015 1.127916
v -1.161739 -0.328703 1.130209
v -1.097742 -0.913534 0.914541
v -1.097213 -0.913134 0.917995
v -1.382346 -0.558167 0.906669
v -1.381838 -0.557686 0.910129
v -1.310317 -0.667786 0.908923
v -1.309752 -0.667461 0.912393
v -1.370809 -0.457835 0.944959
v -1.370672 -0.460564 0.947195
v -1.266461 -0.391950 1.032402
v -1.266216 -0.394640 1.034703
v -0.769605 -0.633419 1.206510
v -0.772210 -0.635711 1.207168
v -1.060439 -0.340736 1.183869
v -1.063334 -0.342751 1.184368
v -0.961812 -0.436664 1.196594
v -0.964657 -0.438718 1.197199
v -0.864893 -0.534262 1.203461
v -0.867675 -0.536374 1.204098
v -0.844972 -1.173945 0.914858
v -0.845291 -1.174549 0.911397
v -0.392588 -1.141734 1.130209
v -0.389933 -1.142386 1.127916
v -0.972545 -1.044915 0.917995
v -0.972973 -1.045421 0.914541
v -0.633418 -1.348804 0.910129
v -0.633927 -1.349284 0.906669
v -0.739030 -1.270743 0.912393
v -0.739385 -1.271290 0.908923
v -0.535827 -1.343037 0.947195
v -0.533110 -1.343325 0.944959
v -0.464215 -1.242396 1.034703
v -0.461542 -1.242790 1.032402
v -0.677534 -0.735788 1.207168
v -0.675101 -0.733314 1.206510
v -0.401161 -1.042702 1.184368
v -0.398988 -1.039924 1.183869
v -0.491511 -0.938858 1.197199
v -0.489302 -0.936131 1.196594
v -0.583642 -0.836612 1.204098
v -0.581379 -0.833951 1.203461
vn -0.4209 -0.3721 0.8273
vn -0.4140 -0.3785 0.8279
vn -0.4132 -0.3793 0.8279
vn -0.4194 -0.3740 0.8272
vn -0.4073 -0.3853 0.8281
vn -0.4016 -0.3916 0.8279
vn -0.4021 -0.3911 0.8279
vn 0.5782 0.5908 0.5627
vn 0.5879 0.5822 0.5617
vn 0.5879 0.5821 0.5617
vn 0.5783 0.5908 0.5627
vn -0.4355 -0.3607 0.8247
vn -0.4280 -0.3663 0.8262
vn -0.4258 -0.3692 0.8260
vn -0.4327 -0.3647 0.8245
vn -0.4128 -0.3798 0.8279
vn -0.4184 -0.3751 0.8272
vn 0.5955 0.5751 0.5610
vn -0.4750 -0.3285 0.8164
vn -0.4494 -0.3491 0.8223
vn -0.4440 -0.3567 0.8220
vn -0.4645 -0.3437 0.8162
vn 0.5659 0.6015 0.5639
vn 0.5659 0.6014 0.5639
vn 0.5512 0.6130 0.5661
vn 0.5512 0.6129 0.5661
vn -0.5192 0.8543 -0.0252
vn -0.5317 0.8469 -0.0066
vn -0.5316 0.8470 -0.0068
vn -0.5191 0.8543 -0.0253
vn -0.5019 -0.3157 0.8053
vn -0.4874 -0.3375 0.8053
vn 0.5336 0.6236 0.5713
vn 0.5337 0.6236 0.5712
vn -0.0249 0.9241 0.3815
vn 0.5169 0.6300 0.5796
vn 0.5170 0.6300 0.5795
vn -0.0242 0.9239 0.3818
vn -0.4865 -0.2723 0.8302
vn -0.4810 -0.2970 0.8249
vn -0.4832 -0.2966 0.8238
vn -0.4935 -0.2699 0.8268
vn -0.5440 0.8390 0.0129
vn -0.5439 0.8391 0.0128
vn -0.4614 -0.3285 0.8241
vn -0.4439 -0.3488 0.8254
vn -0.4412 -0.3527 0.8252
vn -0.4588 -0.3339 0.8234
vn -0.4861 -0.3010 0.8204
vn -0.4547 -0.3411 0.8227
vn -0.4836 -0.3132 0.8173
vn -0.4383 -0.3567 0.8250
vn -0.6346 -0.5283 -0.5641
vn -0.6576 -0.4981 -0.5652
vn -0.6346 -0.5282 -0.5641
vn -0.5989 -0.5718 -0.5607
vn -0.6071 -0.5625 -0.5614
vn -0.4337 -0.3586 0.8266
vn -0.4247 -0.3673 0.8275
vn -0.4235 -0.3688 0.8274
vn -0.4319 -0.3610 0.8265
vn -0.4300 -0.3635 0.8264
vn -0.4223 -0.3703 0.8274
vn -0.4348 -0.3572 0.8267
vn -0.4254 -0.3664 0.8275
vn -0.3984 -0.3947 0.8280
vn -0.3988 -0.3943 0.8279
vn -0.4072 -0.3853 0.8281
vn -0.4158 -0.3763 0.8279
vn -0.4152 -0.3770 0.8279
vn -0.4146 -0.3777 0.8279
vn -0.5069 -0.2751 0.8170
vn -0.5110 -0.2937 0.8078
vn -0.5140 -0.3132 0.7985
vn -0.4987 -0.3368 0.7987
vn -0.8617 0.2946 -0.4132
vn -0.5131 0.8576 -0.0351
vn -0.8616 0.2950 -0.4130
vn -0.6840 -0.4637 -0.5632
vn -0.5126 0.8579 -0.0352
vn -0.3948 -0.3996 0.8273
vn -0.3966 -0.3980 0.8272
vn -0.4008 -0.3924 0.8279
vn 0.6138 0.5547 0.5617
vn 0.6219 0.5446 0.5627
vn 0.6015 0.5690 0.5608
vn 0.6072 0.5627 0.5610
vn -0.3843 -0.4149 0.8247
vn -0.3882 -0.4118 0.8245
vn -0.3922 -0.4047 0.8260
vn -0.3894 -0.4071 0.8262
vn -0.3808 -0.4235 0.8220
vn -0.3847 -0.4199 0.8220
vn -0.3903 -0.4098 0.8245
vn -0.3543 -0.4561 0.8164
vn -0.3689 -0.4447 0.8162
vn -0.3734 -0.4294 0.8223
vn -0.3640 -0.4679 0.8053
vn -0.3738 -0.4586 0.8062
vn -0.3763 -0.4378 0.8165
vn 0.6319 0.5317 0.5639
vn 0.8161 -0.5778 -0.0066
vn 0.8242 -0.5657 -0.0252
vn 0.8243 -0.5656 -0.0253
vn 0.8162 -0.5777 -0.0068
vn 0.6577 0.4812 0.5796
vn 0.9213 -0.0761 0.3814
vn 0.9212 -0.0754 0.3818
vn 0.6577 0.4813 0.5795
vn 0.6426 0.5164 0.5661
vn 0.6522 0.4982 0.5713
vn 0.6522 0.4983 0.5712
vn -0.3431 -0.4836 0.8053
vn 0.8282 -0.5594 -0.0352
vn 0.8278 -0.5599 -0.0351
vn -0.3229 -0.4660 0.8238
vn -0.3275 -0.4686 0.8204
vn -0.3588 -0.4396 0.8234
vn -0.3536 -0.4425 0.8241
vn -0.3767 -0.4209 0.8252
vn -0.3729 -0.4239 0.8254
vn -0.3706 -0.4258 0.8254
vn -0.3821 -0.4131 0.8266
vn -0.3807 -0.4143 0.8267
vn -0.3396 -0.4654 0.8173
vn -0.3658 -0.4351 0.8227
vn -0.3805 -0.4179 0.8250
vn -0.5338 -0.6289 -0.5652
vn -0.5626 -0.6043 -0.5641
vn -0.5626 -0.6044 -0.5641
vn -0.5337 -0.6290 -0.5652
vn -0.3843 -0.4113 0.8265
vn -0.3917 -0.4024 0.8274
vn -0.3903 -0.4037 0.8275
vn -0.5952 -0.5749 -0.5614
vn -0.6041 -0.5663 -0.5607
vn -0.5952 -0.5750 -0.5614
vn -0.3868 -0.4092 0.8264
vn -0.3932 -0.4011 0.8274
vn 0.2464 -0.8767 -0.4132
vn -0.4816 -0.6765 -0.5572
vn -0.4816 -0.6764 -0.5572
vn 0.2468 -0.8766 -0.4130
vn -0.3994 -0.3937 0.8279
vn -0.6016 -0.5691 -0.5606
vn -0.4001 -0.3931 0.8279
vn -0.2875 -0.4783 0.8298
vn -0.2948 -0.4965 0.8164
vn -0.3027 -0.4909 0.8170
vn -0.2968 -0.4778 0.8268
vn -0.3216 -0.4940 0.8078
vn -0.5009 -0.6573 -0.5632
vn -0.5009 -0.6572 -0.5632
vn -0.4457 -0.3464 0.8254
vn -0.4162 -0.3759 0.8280
vn -0.4787 -0.3478 0.8062
vn -0.4895 -0.3505 0.7985
vn -0.5215 -0.2886 0.8030
vn -0.7022 -0.4433 -0.5572
vn -0.7021 -0.4434 -0.5572
vn -0.4843 -0.2628 0.8345
vn -0.4935 -0.2605 0.8298
vn -0.4628 -0.3261 0.8243
vn -0.5121 -0.2668 0.8164
vn -0.4244 -0.3709 0.8260
vn -0.4579 -0.3515 0.8165
vn -0.6199 -0.5470 -0.5625
vn -0.4308 -0.3669 0.8245
vn -0.4406 -0.3609 0.8220
vn -0.3512 -0.4440 0.8243
vn -0.3894 -0.4045 0.8275
vn -0.3639 -0.4793 0.7987
vn -0.3771 -0.4693 0.7985
vn -0.3412 -0.4959 0.7985
vn -0.5806 -0.5886 -0.5625
vn -0.5805 -0.5887 -0.5625
vn -0.2892 -0.4690 0.8345
vn -0.2988 -0.4707 0.8302
vn -0.3232 -0.4637 0.8249
vn 0.8076 -0.5896 0.0129
vn 0.8076 -0.5895 0.0128
vn -0.3170 -0.5047 0.8030
vn -0.3977 -0.3970 0.8272
vn -0.3939 -0.4032 0.8260
vn -0.6345 -0.5282 -0.5642
vn -0.4345 -0.3574 0.8267
vn -0.4453 -0.3467 0.8255
vn -0.6070 -0.5625 -0.5614
vn -0.4252 -0.3666 0.8275
vn 0.0503 0.9654 0.2560
vn -0.5439 0.8390 0.0129
vn -0.4975 -0.3385 0.7987
vn -0.4895 -0.3506 0.7985
vn -0.5317 0.8469 -0.0067
vn -0.5131 -0.3147 0.7986
vn -0.4160 -0.3760 0.8280
vn -0.6015 -0.5691 -0.5606
vn -0.4073 -0.3852 0.8281
vn -0.7534 0.3391 -0.5634
vn -0.7021 -0.4433 -0.5572
vn -0.4864 -0.2721 0.8303
vn -0.4844 -0.2628 0.8345
vn -0.6839 -0.4636 -0.5633
vn -0.4809 -0.2969 0.8250
vn -0.6574 -0.4980 -0.5655
vn -0.4624 -0.3264 0.8244
vn -0.4938 -0.2605 0.8296
vn -0.5127 -0.2675 0.8158
vn -0.5191 0.8543 -0.0252
vn -0.5214 -0.2898 0.8026
vn 0.5954 0.5751 0.5610
vn -0.4129 -0.3797 0.8278
vn 0.5879 0.5822 0.5616
vn -0.4186 -0.3749 0.8272
vn -0.4800 -0.3482 0.8052
vn -0.4594 -0.3509 0.8159
vn -0.4415 -0.3603 0.8218
vn -0.4313 -0.3667 0.8244
vn -0.4247 -0.3707 0.8260
vn -0.3709 -0.4254 0.8255
vn -0.3810 -0.4140 0.8267
vn -0.5626 -0.6043 -0.5642
vn -0.3897 -0.4042 0.8275
vn -0.3655 -0.4780 0.7987
vn 0.9667 -0.0032 0.2561
vn -0.3426 -0.4949 0.7985
vn 0.8162 -0.5778 -0.0067
vn -0.3985 -0.3945 0.8280
vn -0.6040 -0.5663 -0.5607
vn -0.2892 -0.4691 0.8345
vn -0.2987 -0.4706 0.8303
vn -0.4815 -0.6765 -0.5572
vn 0.2969 -0.7710 -0.5634
vn -0.3231 -0.4636 0.8250
vn -0.5008 -0.6572 -0.5633
vn -0.3516 -0.4436 0.8244
vn -0.5336 -0.6289 -0.5655
vn -0.2955 -0.4971 0.8158
vn -0.2875 -0.4786 0.8296
vn 0.8282 -0.5594 -0.0351
vn -0.3183 -0.5045 0.8026
vn -0.4020 -0.3912 0.8278
vn -0.3975 -0.3972 0.8271
vn 0.6138 0.5548 0.5616
vn -0.3758 -0.4393 0.8159
vn -0.3743 -0.4600 0.8052
vn 0.6523 0.4983 0.5712
vn -0.3900 -0.4103 0.8243
vn -0.3842 -0.4208 0.8218
vn -0.3936 -0.4035 0.8260
vt 0.000000 0.000000
s 1
usemtl Window_Glass_Clear
f 2/1/1 32/1/2 52/1/3 16/1/4
f 32/1/2 8/1/5 15/1/5 52/1/3
f 64/1/6 200/1/7 156/1/5 15/1/5
f 184/1/8 138/1/9 85/1/10 108/1/11
f 4/1/12 30/1/13 53/1/14 17/1/15
f 30/1/13 2/1/1 16/1/4 53/1/14
f 16/1/4 52/1/3 179/1/16 139/1/17
f 138/1/9 178/1/18 105/1/18 85/1/10
f 6/1/19 28/1/20 54/1/21 18/1/22
f 28/1/20 4/1/12 17/1/15 54/1/21
f 137/1/23 184/1/8 108/1/11 84/1/24
f 182/1/25 137/1/23 84/1/24 107/1/26
f 176/1/27 132/1/28 82/1/29 104/1/30
f 33/1/31 6/1/19 18/1/22 55/1/32
f 135/1/33 182/1/25 107/1/26 83/1/34
f 123/1/35 180/1/36 106/1/37 77/1/38
f 171/1/39 129/1/40 25/1/41 63/1/42
f 166/1/43 123/1/35 77/1/38 99/1/44
f 56/1/45 23/1/46 3/1/47 27/1/48
f 25/1/41 56/1/45 27/1/48 5/1/49
f 5/1/49 27/1/48 57/1/50 26/1/51
f 27/1/48 3/1/47 24/1/52 57/1/50
f 57/1/50 24/1/52 4/1/12 28/1/20
f 26/1/51 57/1/50 28/1/20 6/1/19
f 121/1/53 172/1/54 102/1/54 76/1/55
f 168/1/56 124/1/57 78/1/57 100/1/56
f 58/1/58 21/1/59 1/1/60 29/1/61
f 23/1/46 58/1/58 29/1/61 3/1/47
f 3/1/47 29/1/61 59/1/62 24/1/52
f 29/1/61 1/1/60 22/1/63 59/1/62
f 59/1/62 22/1/63 2/1/1 30/1/13
f 24/1/52 59/1/62 30/1/13 4/1/12
f 165/1/64 125/1/65 21/1/59 58/1/58
f 190/1/66 72/1/67 19/1/68 141/1/68
f 60/1/69 19/1/68 7/1/68 31/1/70
f 21/1/59 60/1/69 31/1/70 1/1/60
f 1/1/60 31/1/70 61/1/71 22/1/63
f 31/1/70 7/1/68 20/1/68 61/1/71
f 61/1/71 20/1/68 8/1/5 32/1/2
f 22/1/63 61/1/71 32/1/2 2/1/1
f 132/1/28 166/1/43 99/1/44 82/1/29
f 34/1/72 5/1/49 26/1/51 62/1/73
f 62/1/73 26/1/51 6/1/19 33/1/31
f 133/1/74 33/1/31 55/1/32 167/1/75
f 127/1/76 174/1/77 103/1/77 79/1/78
f 172/1/54 128/1/79 80/1/79 102/1/54
f 63/1/42 25/1/41 5/1/49 34/1/72
f 131/1/80 176/1/27 104/1/30 81/1/80
f 10/1/81 35/1/82 64/1/6 49/1/83
f 163/1/84 207/1/85 119/1/85 97/1/84
f 157/1/86 201/1/87 116/1/87 94/1/86
f 49/1/83 64/1/6 15/1/5 8/1/5
f 12/1/88 36/1/89 65/1/90 47/1/91
f 66/1/92 204/1/93 161/1/94 36/1/89
f 47/1/91 65/1/90 35/1/82 10/1/81
f 14/1/95 37/1/96 66/1/92 45/1/97
f 67/1/98 202/1/99 159/1/100 37/1/96
f 207/1/85 160/1/101 96/1/101 119/1/85
f 45/1/97 66/1/92 36/1/89 12/1/88
f 155/1/102 199/1/103 115/1/104 93/1/105
f 203/1/106 144/1/107 88/1/108 117/1/109
f 205/1/110 158/1/111 95/1/112 118/1/110
f 50/1/113 67/1/98 37/1/96 14/1/95
f 152/1/114 197/1/115 114/1/115 92/1/114
f 42/1/116 13/1/117 44/1/118 68/1/119
f 68/1/119 44/1/118 11/1/120 40/1/121
f 143/1/122 40/1/121 70/1/123 186/1/124
f 13/1/117 43/1/125 69/1/126 44/1/118
f 43/1/125 14/1/95 45/1/97 69/1/126
f 69/1/126 45/1/97 12/1/88 41/1/127
f 44/1/118 69/1/126 41/1/127 11/1/120
f 195/1/128 142/1/129 87/1/130 113/1/131
f 40/1/121 11/1/120 46/1/132 70/1/123
f 70/1/123 46/1/132 9/1/133 38/1/134
f 147/1/135 191/1/136 111/1/136 89/1/137
f 11/1/120 41/1/127 71/1/138 46/1/132
f 41/1/127 12/1/88 47/1/91 71/1/138
f 71/1/138 47/1/91 10/1/81 39/1/139
f 46/1/132 71/1/138 39/1/139 9/1/133
f 148/1/140 193/1/141 112/1/142 90/1/143
f 38/1/134 9/1/133 48/1/144 72/1/67
f 72/1/67 48/1/144 7/1/68 19/1/68
f 191/1/136 140/1/145 86/1/145 111/1/136
f 9/1/133 39/1/139 73/1/146 48/1/144
f 39/1/139 10/1/81 49/1/83 73/1/146
f 73/1/146 49/1/83 8/1/5 20/1/68
f 48/1/144 73/1/146 20/1/68 7/1/68
f 196/1/147 153/1/148 51/1/149 75/1/150
f 178/1/18 157/1/86 94/1/86 105/1/18
f 74/1/151 50/1/113 14/1/95 43/1/125
f 51/1/149 74/1/151 43/1/125 13/1/117
f 197/1/115 148/1/140 90/1/143 114/1/115
f 199/1/103 152/1/114 92/1/114 115/1/104
f 75/1/150 51/1/149 13/1/117 42/1/116
f 151/1/152 195/1/128 113/1/131 91/1/153
f 120/1/154 165/1/64 58/1/58 23/1/46
f 125/1/65 169/1/155 60/1/69 21/1/59
f 167/1/75 55/1/32 181/1/156 122/1/157
f 177/1/158 62/1/73 33/1/31 133/1/74
f 170/1/159 127/1/76 79/1/78 101/1/160
f 169/1/155 141/1/68 19/1/68 60/1/69
f 126/1/161 171/1/39 63/1/42 175/1/162
f 129/1/40 173/1/163 56/1/45 25/1/41
f 174/1/77 131/1/80 81/1/80 103/1/77
f 173/1/163 120/1/154 23/1/46 56/1/45
f 175/1/162 63/1/42 34/1/72 130/1/164
f 128/1/79 170/1/159 101/1/160 80/1/79
f 180/1/36 135/1/33 83/1/34 106/1/37
f 130/1/164 34/1/72 62/1/73 177/1/158
f 52/1/3 15/1/5 156/1/5 179/1/16
f 53/1/14 16/1/4 139/1/17 185/1/165
f 55/1/32 18/1/22 134/1/166 181/1/156
f 124/1/57 164/1/167 98/1/167 78/1/57
f 54/1/21 17/1/15 136/1/168 183/1/169
f 18/1/22 54/1/21 183/1/169 134/1/166
f 140/1/145 168/1/56 100/1/56 86/1/145
f 17/1/15 53/1/14 185/1/165 136/1/168
f 194/1/170 68/1/119 40/1/121 143/1/122
f 186/1/124 70/1/123 38/1/134 146/1/171
f 188/1/172 145/1/173 202/1/99 67/1/98
f 154/1/174 188/1/172 67/1/98 50/1/113
f 146/1/171 38/1/134 72/1/67 190/1/66
f 142/1/129 187/1/175 109/1/176 87/1/130
f 149/1/177 196/1/147 75/1/150 192/1/178
f 192/1/178 75/1/150 42/1/116 150/1/179
f 150/1/179 42/1/116 68/1/119 194/1/170
f 144/1/107 189/1/180 110/1/181 88/1/108
f 153/1/148 198/1/182 74/1/151 51/1/149
f 193/1/141 151/1/152 91/1/153 112/1/142
f 198/1/182 154/1/174 50/1/113 74/1/151
f 189/1/180 155/1/102 93/1/105 110/1/181
f 158/1/111 203/1/106 117/1/109 95/1/112
f 35/1/82 162/1/183 200/1/7 64/1/6
f 37/1/96 159/1/100 204/1/93 66/1/92
f 187/1/175 147/1/135 89/1/137 109/1/176
f 36/1/89 161/1/94 206/1/184 65/1/90
f 160/1/101 205/1/110 118/1/110 96/1/101
f 65/1/90 206/1/184 162/1/183 35/1/82
f 201/1/87 163/1/84 97/1/84 116/1/87
f 121/1/185 164/1/167 165/1/186 120/1/187
f 164/1/167 124/1/188 125/1/189 165/1/186
f 123/1/190 166/1/191 167/1/192 122/1/193
f 166/1/191 132/1/194 133/1/195 167/1/192
f 124/1/188 168/1/56 169/1/196 125/1/189
f 168/1/56 140/1/197 141/1/198 169/1/196
f 127/1/199 170/1/200 171/1/201 126/1/202
f 170/1/200 128/1/203 129/1/204 171/1/201
f 128/1/203 172/1/205 173/1/206 129/1/204
f 172/1/205 121/1/185 120/1/187 173/1/206
f 131/1/80 174/1/77 175/1/207 130/1/208
f 174/1/77 127/1/199 126/1/202 175/1/207
f 132/1/194 176/1/209 177/1/210 133/1/195
f 176/1/209 131/1/80 130/1/208 177/1/210
f 157/1/86 178/1/211 179/1/212 156/1/5
f 178/1/211 138/1/213 139/1/214 179/1/212
f 135/1/34 180/1/37 181/1/215 134/1/216
f 180/1/37 123/1/190 122/1/193 181/1/215
f 137/1/23 182/1/25 183/1/217 136/1/218
f 182/1/25 135/1/34 134/1/216 183/1/217
f 138/1/213 184/1/11 185/1/219 139/1/214
f 184/1/11 137/1/23 136/1/218 185/1/219
f 143/1/220 186/1/221 187/1/175 142/1/222
f 186/1/221 146/1/223 147/1/137 187/1/175
f 145/1/173 188/1/224 189/1/180 144/1/225
f 188/1/224 154/1/226 155/1/227 189/1/180
f 146/1/223 190/1/228 191/1/229 147/1/137
f 190/1/228 141/1/198 140/1/197 191/1/229
f 149/1/230 192/1/231 193/1/232 148/1/233
f 192/1/231 150/1/234 151/1/235 193/1/232
f 150/1/234 194/1/236 195/1/237 151/1/235
f 194/1/236 143/1/220 142/1/222 195/1/237
f 153/1/238 196/1/239 197/1/115 152/1/240
f 196/1/239 149/1/230 148/1/233 197/1/115
f 154/1/226 198/1/241 199/1/103 155/1/227
f 198/1/241 153/1/238 152/1/240 199/1/103
f 156/1/5 200/1/242 201/1/87 157/1/86
f 200/1/242 162/1/243 163/1/244 201/1/87
f 159/1/245 202/1/246 203/1/109 158/1/247
f 202/1/246 145/1/173 144/1/225 203/1/109
f 161/1/248 204/1/249 205/1/110 160/1/101
f 204/1/249 159/1/245 158/1/247 205/1/110
f 162/1/243 206/1/250 207/1/85 163/1/244
f 206/1/250 161/1/248 160/1/101 207/1/85
f 164/1/167 121/1/53 76/1/55 98/1/167
